<?xml version="1.0" encoding="utf-8"?>
<!-- Generator: Adobe Illustrator 16.0.0, SVG Export Plug-In . SVG Version: 6.00 Build 0)  -->
<svg version="1.2" baseProfile="tiny" id="Layer_1" xmlns="http://www.w3.org/2000/svg" xmlns:xlink="http://www.w3.org/1999/xlink"
	 x="0px" y="0px" width="480.228px" height="87.553px" viewBox="0 0 480.228 87.553" xml:space="preserve">
<g>
	<path fill="#FFFFFF" d="M64.811,26.67C75.017,22.66,75.742,9.619,82.299,2.187c1.312-1.312,2.623,2.186,3.061,3.935
		C87.983,5.247,87.545,1.749,89.732,0c0.438,0,0.875,0,0.875,0.438c0.873,2.623-0.438,5.246,0.437,7.433
		c0.437,1.312,3.061,1.749,4.372,3.497c0.437,0.438,0.437,1.749,0.437,2.187c2.187,2.623,6.558,2.186,8.308,4.81
		c1.748,3.061-1.75,5.246-3.936,6.558c-2.623,1.312-6.12-0.438-8.307,0.874c-1.748,1.312-1.748,3.498-2.623,5.684
		c-2.623,6.121-3.935,12.242-6.558,18.362c-1.313,3.936-5.247,6.559-7.433,10.056c-2.186,3.061-1.749,6.996-2.186,10.493
		c-0.438,1.749-0.438,3.498-0.438,5.247c0.438,0.874,1.312,1.748,1.312,3.06c2.187-0.437,4.371,0,5.684,1.749
		c0.438,0.874-1.313,1.749-0.875,2.623c0.875,0.438,1.749,1.312,1.313,2.187c-2.188,2.623-6.121,1.748-8.745,0.874
		c-1.748-0.437-1.748-3.498-3.061-5.246c-1.748-1.313-2.622-2.623-2.622-3.936c0-4.809-1.313-9.618-1.75-14.428
		c0-1.312-1.311-2.186-2.623-2.186c-6.558,0-12.679-1.312-19.236-1.312c-0.438-0.438-1.749-0.438-2.186-1.312
		c-2.186,2.186-3.936,4.372-5.684,6.995c-0.874,1.749-3.062,3.061-4.81,4.372c-1.312,1.749-1.312,4.372,0.875,5.684
		c1.748,0.875,3.497,1.749,5.683,1.312c0.875-0.437,2.187,0.874,2.624,1.749c0.437,1.312,0,2.186-1.312,2.623
		c-1.749,0-3.935,0.438-5.685,0c-4.371-1.749-10.492-3.498-11.367-8.307c0-2.187,3.498-4.372,3.06-7.433
		c-1.311,0.438-2.623,1.749-3.06,2.623c-1.749,5.684-4.809,15.302-11.367,13.554c-2.186-0.438-1.749-4.372-1.749-7.433
		c-2.186,1.749-1.312,4.372-1.312,6.558c0.437,0,1.312,0,1.312,0.438c0,1.312,2.186,2.186,1.312,3.498
		c-2.186,2.186-6.995,2.186-7.869,0c-1.312-5.247,0-10.931,1.312-16.177c0.438-2.187,4.372-2.187,5.683-4.372
		c3.498-6.121,1.312-12.679,4.81-18.8c3.061-5.684,8.307-9.618,14.428-11.367C39.454,29.73,52.57,31.479,64.811,26.67z"/>
</g>
<g>
	<path fill="#FFFFFF" d="M132.752,58.259c2.218,1.266,3.979,3.081,5.281,5.447c1.301,2.365,1.953,5.107,1.953,8.224
		c0,3.118-0.652,5.868-1.953,8.252c-1.302,2.384-3.063,4.208-5.281,5.474c-2.22,1.266-4.649,1.897-7.289,1.897
		c-3.705,0-6.456-1.008-8.252-3.025v2.476h-11.828V46.184h12.433v12.762c1.76-1.723,4.309-2.585,7.647-2.585
		C128.103,56.361,130.532,56.994,132.752,58.259z M126.013,76.304c0.917-1.046,1.375-2.504,1.375-4.374s-0.459-3.319-1.375-4.346
		c-0.917-1.026-2.09-1.54-3.521-1.54c-1.431,0-2.604,0.514-3.521,1.54c-0.917,1.026-1.375,2.476-1.375,4.346
		s0.458,3.328,1.375,4.374c0.917,1.045,2.09,1.567,3.521,1.567C123.922,77.871,125.096,77.349,126.013,76.304z"/>
	<path fill="#FFFFFF" d="M143.891,46.184h12.433v40.819h-12.433V46.184z"/>
	<path fill="#FFFFFF" d="M187.405,59.909c2.787,2.366,4.181,6.006,4.181,10.92v16.174h-11.552v-3.961
		c-1.43,3.008-4.273,4.511-8.527,4.511c-2.384,0-4.41-0.412-6.079-1.237c-1.669-0.825-2.935-1.943-3.796-3.355
		c-0.862-1.412-1.293-2.998-1.293-4.759c0-2.971,1.136-5.226,3.411-6.767c2.274-1.54,5.721-2.311,10.342-2.311h5.006
		c-0.404-2.347-2.292-3.521-5.667-3.521c-1.357,0-2.732,0.212-4.126,0.632c-1.394,0.423-2.585,1-3.576,1.733l-3.96-8.196
		c1.723-1.063,3.804-1.898,6.244-2.504c2.438-0.604,4.869-0.907,7.289-0.907C180.584,56.361,184.618,57.544,187.405,59.909z
		 M177.613,79.356c0.696-0.477,1.21-1.191,1.54-2.146V75.12h-3.081c-2.53,0-3.796,0.844-3.796,2.531
		c0,0.697,0.266,1.274,0.798,1.732c0.531,0.459,1.256,0.688,2.173,0.688C176.128,80.071,176.916,79.833,177.613,79.356z"/>
	<path fill="#FFFFFF" d="M204.541,85.572c-2.696-1.32-4.805-3.172-6.327-5.556c-1.522-2.384-2.283-5.079-2.283-8.087
		c0-3.007,0.761-5.694,2.283-8.06c1.521-2.365,3.631-4.208,6.327-5.528c2.695-1.32,5.749-1.98,9.159-1.98
		c3.667,0,6.803,0.789,9.407,2.366c2.604,1.576,4.401,3.76,5.391,6.546l-9.627,4.731c-1.174-2.641-2.916-3.961-5.226-3.961
		c-1.467,0-2.687,0.514-3.658,1.54c-0.972,1.026-1.458,2.476-1.458,4.346c0,1.907,0.486,3.374,1.458,4.401
		c0.971,1.027,2.191,1.54,3.658,1.54c2.311,0,4.052-1.32,5.226-3.961l9.627,4.731c-0.99,2.787-2.788,4.97-5.391,6.546
		c-2.604,1.577-5.74,2.365-9.407,2.365C210.289,87.553,207.236,86.893,204.541,85.572z"/>
	<path fill="#FFFFFF" d="M245.771,77.761l-1.98,2.146v7.097h-12.433V46.184h12.433v19.474l8.637-8.747h14.688l-12.432,13.038
		l13.422,17.054h-15.018L245.771,77.761z"/>
	<path fill="#FFFFFF" d="M292.723,60.542c2.146,1.98,3.219,4.934,3.219,8.857v17.604h-5.006v-3.851
		c-0.881,1.357-2.137,2.393-3.769,3.108c-1.632,0.715-3.567,1.072-5.804,1.072c-3.265,0-5.877-0.788-7.839-2.365
		s-2.943-3.648-2.943-6.217c0-2.566,0.935-4.629,2.806-6.188c1.871-1.559,4.841-2.339,8.912-2.339h8.361v-1.045
		c0-2.273-0.66-4.016-1.98-5.226s-3.264-1.815-5.831-1.815c-1.724,0-3.411,0.285-5.062,0.853c-1.65,0.569-3.044,1.329-4.18,2.283
		l-2.201-3.961c1.504-1.21,3.301-2.136,5.391-2.778c2.091-0.641,4.31-0.963,6.657-0.963
		C287.488,57.571,290.578,58.562,292.723,60.542z M287.47,81.915c1.466-0.898,2.53-2.174,3.19-3.824v-4.07h-8.142
		c-4.475,0-6.712,1.504-6.712,4.511c0,1.468,0.568,2.622,1.706,3.466c1.136,0.844,2.714,1.265,4.731,1.265
		C284.26,83.262,286.002,82.813,287.47,81.915z"/>
	<path fill="#FFFFFF" d="M305.732,46.184h5.281v40.819h-5.281V46.184z"/>
	<path fill="#FFFFFF" d="M322.566,86.37c-2.2-0.641-3.925-1.458-5.171-2.448l2.2-4.181c1.283,0.918,2.842,1.65,4.676,2.201
		c1.834,0.55,3.687,0.824,5.557,0.824c4.621,0,6.932-1.32,6.932-3.961c0-0.88-0.313-1.576-0.936-2.09
		c-0.624-0.514-1.402-0.889-2.338-1.128c-0.936-0.237-2.265-0.503-3.988-0.798c-2.348-0.365-4.264-0.788-5.749-1.266
		c-1.485-0.476-2.76-1.283-3.823-2.42s-1.595-2.731-1.595-4.786c0-2.641,1.1-4.759,3.301-6.354c2.2-1.596,5.151-2.394,8.856-2.394
		c1.943,0,3.887,0.239,5.831,0.715c1.943,0.478,3.539,1.119,4.786,1.926l-2.256,4.182c-2.384-1.541-5.189-2.311-8.416-2.311
		c-2.237,0-3.943,0.367-5.116,1.1c-1.175,0.734-1.761,1.705-1.761,2.916c0,0.954,0.33,1.705,0.99,2.256
		c0.66,0.55,1.476,0.953,2.448,1.21c0.972,0.257,2.338,0.55,4.099,0.88c2.347,0.404,4.244,0.834,5.693,1.293
		c1.448,0.459,2.687,1.238,3.713,2.338s1.541,2.641,1.541,4.621c0,2.641-1.128,4.74-3.384,6.299
		c-2.255,1.56-5.327,2.338-9.214,2.338C327.059,87.333,324.767,87.012,322.566,86.37z"/>
	<path fill="#FFFFFF" d="M368.528,60.542c2.146,1.98,3.219,4.934,3.219,8.857v17.604h-5.007v-3.851
		c-0.88,1.357-2.137,2.393-3.768,3.108c-1.633,0.715-3.567,1.072-5.804,1.072c-3.265,0-5.878-0.788-7.84-2.365
		s-2.942-3.648-2.942-6.217c0-2.566,0.935-4.629,2.806-6.188c1.87-1.559,4.841-2.339,8.911-2.339h8.362v-1.045
		c0-2.273-0.66-4.016-1.98-5.226s-3.265-1.815-5.831-1.815c-1.725,0-3.411,0.285-5.062,0.853c-1.65,0.569-3.045,1.329-4.181,2.283
		l-2.2-3.961c1.503-1.21,3.3-2.136,5.391-2.778c2.091-0.641,4.309-0.963,6.656-0.963C363.293,57.571,366.383,58.562,368.528,60.542z
		 M363.275,81.915c1.466-0.898,2.53-2.174,3.19-3.824v-4.07h-8.142c-4.476,0-6.712,1.504-6.712,4.511
		c0,1.468,0.568,2.622,1.705,3.466s2.714,1.265,4.731,1.265C360.065,83.262,361.808,82.813,363.275,81.915z"/>
	<path fill="#FFFFFF" d="M397.932,85.298c-0.771,0.66-1.725,1.164-2.86,1.513c-1.138,0.348-2.311,0.522-3.521,0.522
		c-2.935,0-5.208-0.788-6.822-2.365s-2.42-3.832-2.42-6.767V62.192h-4.951v-4.346h4.951v-6.381h5.281v6.381h8.361v4.346h-8.361
		v15.789c0,1.576,0.394,2.787,1.183,3.631c0.788,0.844,1.916,1.265,3.383,1.265c1.613,0,2.989-0.458,4.126-1.375L397.932,85.298z"/>
	<path fill="#FFFFFF" d="M404.395,51.245c-0.68-0.66-1.018-1.466-1.018-2.42c0-0.953,0.338-1.769,1.018-2.448
		c0.678-0.678,1.53-1.018,2.558-1.018c1.026,0,1.879,0.322,2.559,0.963c0.678,0.642,1.018,1.44,1.018,2.393
		c0,0.99-0.34,1.825-1.018,2.503c-0.68,0.679-1.532,1.018-2.559,1.018C405.925,52.235,405.072,51.905,404.395,51.245z
		 M404.312,57.847h5.281v29.156h-5.281V57.847z"/>
	<path fill="#FFFFFF" d="M439.547,60.542c2.146,1.98,3.219,4.934,3.219,8.857v17.604h-5.007v-3.851
		c-0.88,1.357-2.137,2.393-3.768,3.108c-1.633,0.715-3.567,1.072-5.804,1.072c-3.265,0-5.878-0.788-7.84-2.365
		s-2.942-3.648-2.942-6.217c0-2.566,0.935-4.629,2.806-6.188c1.87-1.559,4.841-2.339,8.911-2.339h8.362v-1.045
		c0-2.273-0.66-4.016-1.98-5.226s-3.265-1.815-5.831-1.815c-1.725,0-3.411,0.285-5.062,0.853c-1.65,0.569-3.045,1.329-4.181,2.283
		l-2.2-3.961c1.503-1.21,3.3-2.136,5.391-2.778c2.091-0.641,4.309-0.963,6.656-0.963C434.312,57.571,437.401,58.562,439.547,60.542z
		 M434.294,81.915c1.466-0.898,2.53-2.174,3.19-3.824v-4.07h-8.142c-4.476,0-6.712,1.504-6.712,4.511
		c0,1.468,0.568,2.622,1.705,3.466s2.714,1.265,4.731,1.265C431.084,83.262,432.826,82.813,434.294,81.915z"/>
	<path fill="#FFFFFF" d="M476.954,60.79c2.182,2.146,3.273,5.291,3.273,9.434v16.779h-5.281V70.829c0-2.823-0.679-4.951-2.035-6.381
		c-1.357-1.43-3.301-2.146-5.831-2.146c-2.86,0-5.116,0.835-6.767,2.503c-1.65,1.67-2.476,4.063-2.476,7.18v15.018h-5.281V57.847
		h5.062v4.4c1.063-1.503,2.503-2.658,4.318-3.465s3.878-1.211,6.188-1.211C471.829,57.571,474.772,58.645,476.954,60.79z"/>
</g>
</svg>
