<?xml version="1.0" encoding="utf-8"?>
<!-- Generator: Adobe Illustrator 16.0.0, SVG Export Plug-In . SVG Version: 6.00 Build 0)  -->
<svg version="1.2" baseProfile="tiny" id="Layer_1" xmlns="http://www.w3.org/2000/svg" xmlns:xlink="http://www.w3.org/1999/xlink"
	 x="0px" y="0px" width="480.273px" height="87.685px" viewBox="0 0 480.273 87.685" xml:space="preserve">
<path fill="primary" d="M64.813,26.759c6.192-2.433,9.075-8.584,11.647-14.269c1.292-2.854,2.577-5.748,4.372-8.331
	c0.502-0.723,1.588-2.826,2.665-1.912c1.062,0.901,1.542,2.666,1.866,3.962c1.984-0.661,2.299-2.983,3.164-4.603
	c0.229-0.428,1.44-2.351,2.035-1.294c0.68,1.208,0.347,3.13,0.237,4.435c-0.092,1.1-0.243,2.544,0.401,3.522
	c0.521,0.793,1.59,1.19,2.375,1.657c0.779,0.463,1.841,1.121,2.113,2.046c0.128,0.436,0.156,0.902,0.166,1.354
	c0.011,0.542,0.519,0.878,0.941,1.186c1.736,1.261,3.956,1.488,5.798,2.536c1.898,1.079,2.676,3.206,1.306,5.052
	c-1.161,1.565-3.373,3.152-5.332,3.377c-2.056,0.236-5.158-0.916-6.884,0.599c-1.63,1.431-1.744,3.961-2.541,5.857
	c-1.109,2.639-2.01,5.357-2.887,8.08c-0.833,2.584-1.651,5.175-2.623,7.712c-0.868,2.265-1.738,4.362-3.292,6.25
	c-1.348,1.639-2.895,3.106-4.185,4.793c-1.461,1.91-2.306,3.906-2.596,6.299c-0.279,2.303-0.422,4.61-0.715,6.909
	c-0.08,0.622-0.12,1.248-0.14,1.874c-0.019,0.601-0.203,1.566,0.098,2.093c0.52,0.91,1.194,1.736,1.194,2.841
	c1.182-0.236,2.443-0.234,3.584,0.188c0.765,0.284,2.562,1.224,2.066,2.26c-0.281,0.589-1.454,1.54-0.58,2.067
	c1.287,0.777,1.488,1.88,0.262,2.793c-1.797,1.337-4.249,1.112-6.299,0.608c-0.792-0.195-1.882-0.354-2.467-0.972
	c-0.685-0.724-0.938-1.807-1.262-2.719c-0.171-0.481-0.355-0.962-0.595-1.414c-0.311-0.584-0.756-0.882-1.237-1.32
	c-0.862-0.786-1.675-1.802-1.769-3.01c-0.115-1.471-0.11-2.937-0.286-4.407c-0.198-1.652-0.475-3.294-0.743-4.937
	c-0.247-1.514-0.488-3.03-0.654-4.556c-0.147-1.349-0.399-2.413-1.869-2.829c-1.307-0.37-2.911-0.144-4.266-0.225
	c-1.629-0.097-3.254-0.249-4.877-0.413c-2.494-0.253-4.985-0.533-7.488-0.682c-0.633-0.038-1.267-0.067-1.9-0.085
	c-0.47-0.015-1.276,0.128-1.662-0.124c-0.67-0.439-1.655-0.402-2.059-1.211c-2.046,2.047-3.863,4.297-5.482,6.694
	c-0.684,1.013-1.317,1.869-2.279,2.65c-0.926,0.753-2.401,1.407-3.011,2.44c-1.145,1.939-0.623,4.382,1.445,5.411
	c1.158,0.576,2.358,1.13,3.662,1.255c1.318,0.127,2.318-0.514,3.413,0.467c0.729,0.653,1.36,1.622,1.021,2.639
	c-0.435,1.304-1.931,1.177-3.026,1.258c-1.337,0.1-2.733,0.249-4.05-0.08c-1.019-0.407-2.049-0.786-3.069-1.188
	c-1.986-0.785-4.013-1.652-5.685-3.009c-1.275-1.033-3.058-3.07-2.486-4.86c0.751-2.35,3.324-3.955,2.934-6.682
	c-1.459,0.487-2.79,1.754-3.244,3.218c-0.386,1.245-0.787,2.486-1.238,3.711c-0.915,2.488-2.014,5.056-3.785,7.066
	c-1.586,1.803-3.759,2.822-6.161,2.182c-2.59-0.519-1.749-5.643-1.749-7.433c-2,1.6-1.376,4.088-1.315,6.304
	c0.012,0.444,0.626,0.22,1.015,0.36c0.397,0.145,0.283,0.567,0.43,0.895c0.345,0.769,1.277,1.321,1.381,2.192
	c0.22,1.841-3.646,2.42-4.862,2.377c-0.835-0.029-1.723-0.204-2.421-0.688c-1-0.692-1.048-2.004-1.183-3.115
	c-0.373-3.093,0.008-6.228,0.614-9.266c0.293-1.471,0.644-2.929,1.005-4.384c0.245-0.985,0.695-1.553,1.59-2.049
	c0.811-0.449,1.688-0.763,2.5-1.209c1.077-0.592,1.674-1.356,2.197-2.46c1.251-2.64,1.593-5.541,1.89-8.412
	c0.285-2.751,0.604-5.529,1.738-8.083c1.05-2.365,2.601-4.556,4.407-6.402c3.62-3.7,8.233-5.797,13.228-6.916
	C41.043,30.059,53.481,31.21,64.813,26.759C75.019,22.749,52.571,31.567,64.813,26.759z M125.464,56.45
	c-2.74,0-5.627,0.608-7.647,2.585c0-1.27,0.066-12.762-0.065-12.762c-2.51,0-5.02,0-7.529,0c-0.444,0-4.838-0.155-4.838,0.127
	c0,10.347,0,20.695,0,31.042c0,0.584-0.043,9.65,0.04,9.65c2.516,0,5.032,0,7.548,0c1.248,0,2.495,0,3.743,0
	c0.05,0,0.498,0.024,0.498-0.02c0-0.678,0-1.354,0-2.032c0-0.142,0-0.282,0-0.424c2.95,3.313,8.379,3.607,12.384,2.461
	c4.701-1.346,8.252-5.067,9.65-9.72c1.377-4.582,0.958-9.991-1.534-14.12C135.122,58.946,130.458,56.45,125.464,56.45z
	 M122.494,77.96c-6.572,0-6.602-11.827,0-11.827C129.095,66.133,129.065,77.96,122.494,77.96z M143.893,87.092
	c1.218,0,12.433,0.046,12.433-0.046c0-3.731,0-7.462,0-11.192c0-9.859,0-19.72,0-29.579c0,0.021-12.433-0.05-12.433,0.031
	c0,3.675,0,7.351,0,11.026c0,9.919,0,19.837,0,29.756C143.893,87.088,143.893,87.09,143.893,87.092z M175.304,56.45
	c-3.398,0-6.85,0.573-10.044,1.744c-0.298,0.109-3.579,1.48-3.486,1.672c0.159,0.33,0.318,0.659,0.478,0.988
	c1.16,2.401,2.32,4.802,3.48,7.203c3.08-2.281,12.376-4.6,13.368,1.155c-6.219,0-16.886-0.961-18.561,7.051
	c-1.143,5.467,2.523,10.088,7.822,11.101c4.29,0.819,9.601,0.127,11.674-4.233c0,1.223,0,2.445,0,3.668
	c0,0.576,1.075,0.293,1.551,0.293c2.95,0,5.9,0,8.851,0c0.331,0,1.151,0.216,1.151-0.199c0-0.903,0-1.808,0-2.711
	c0-3.12,0-6.241,0-9.362c0-3.679,0.232-7.493-1.303-10.938C187.698,58.074,181.129,56.45,175.304,56.45z M175.249,80.16
	c-1.95,0-4.032-1.974-2.511-3.875c0.986-1.233,2.89-1.076,4.311-1.076c0.658,0,1.316,0,1.974,0c0.291,0,0.132,0.994,0.132,1.24
	C179.155,78.583,177.392,80.16,175.249,80.16z M213.701,87.642c3.786,0,7.636-0.896,10.682-3.234
	c1.329-1.021,2.447-2.297,3.258-3.765c0.098-0.176,0.959-1.862,0.841-1.921c-0.156-0.076-0.312-0.152-0.467-0.229
	c-3.047-1.498-6.095-2.995-9.143-4.493c-1.025,2.305-2.877,4.089-5.537,3.953c-3.057-0.156-4.713-2.764-4.801-5.602
	c-0.089-2.901,1.315-5.852,4.498-6.187c2.78-0.292,4.767,1.518,5.84,3.93c2.159-1.061,4.317-2.122,6.476-3.183
	c1-0.492,2-0.983,3-1.475c0.774-0.381-2.366-4.316-2.834-4.773c-3.979-3.876-10.027-4.753-15.331-3.96
	c-5.307,0.793-10.333,3.739-12.762,8.656c-2.467,4.995-1.863,11.345,1.508,15.771C202.394,85.677,208.141,87.642,213.701,87.642z
	 M253.089,87.092c5.006,0,10.012,0,15.018,0c-2.985-3.793-5.971-7.587-8.957-11.38c-1.407-1.789-2.814-3.577-4.223-5.365
	c-0.266-0.339-0.269-0.281,0.031-0.595c0.662-0.695,1.324-1.39,1.986-2.084c3.391-3.556,6.781-7.112,10.172-10.668
	c-4.761,0-9.522,0-14.283,0c-0.51,0-0.557,0.154-0.933,0.535c-0.918,0.93-1.836,1.859-2.754,2.789
	c-1.77,1.792-3.539,3.584-5.308,5.376c-0.016,0.016-0.031,0.031-0.047,0.047c0-4.925,0-9.85,0-14.775
	c0-0.307,0.041-4.699-0.037-4.699c-2.455,0-4.909,0-7.363,0c-0.428,0-5.033-0.122-5.033,0.103c0,1.28,0,2.56,0,3.84
	c0,5.854,0,11.708,0,17.563c0,5.543,0,11.087,0,16.631c0,0.157-0.019,2.682,0.017,2.682c2.396,0,4.792,0,7.188,0
	c1.527,0,3.054,0,4.581,0c0.068,0,0.647,0.035,0.647-0.028c0-0.546,0-1.093,0-1.639c0-1.67,0-3.339,0-5.009
	c0-0.982,1.341-1.874,1.98-2.566C248.211,80.931,250.651,84.011,253.089,87.092z M283.456,57.66c-4.032,0-8.269,0.948-11.563,3.368
	c-0.521,0.384-0.517,0.314-0.243,0.808c0.254,0.457,0.509,0.914,0.763,1.371c0.398,0.719,0.798,1.437,1.197,2.155
	c2.148-1.805,5.004-2.802,7.772-3.066c2.396-0.229,5.191-0.029,7.116,1.585c1.777,1.491,2.164,3.707,2.164,5.909
	c0,0.51,0.096,0.522-0.37,0.522c-0.6,0-1.198,0-1.798,0c-2.962,0-6.009-0.178-8.96,0.138c-2.159,0.23-4.44,0.781-6.146,2.201
	c-1.95,1.625-2.879,3.979-2.801,6.494c0.137,4.415,3.713,7.299,7.831,8.032c4.322,0.77,9.933,0.048,12.519-3.937
	c0,1.217,0,2.434,0,3.651c0,0.334,0.265,0.199,0.572,0.199c0.774,0,1.55,0,2.324,0c0.358,0,2.109,0.244,2.109-0.184
	c0-0.843,0-1.687,0-2.53c0-4.963,0.037-9.927,0-14.89c0-3.219-0.771-6.599-3.219-8.857C290.236,58.333,286.742,57.66,283.456,57.66z
	 M282.246,83.351c-2.223,0-4.931-0.569-6.011-2.764c-0.796-1.615-0.532-3.856,0.867-5.058c2.241-1.926,5.935-1.42,8.705-1.42
	c1.43,0,2.858,0,4.287,0c0.092,0,0.567-0.06,0.567,0.049c0,0.629,0,1.259,0,1.888c0,0.649,0,1.299,0,1.948
	c0,0.839-0.863,1.886-1.388,2.491C287.519,82.507,284.86,83.351,282.246,83.351z M305.734,87.092c0.634,0,5.281,0.146,5.281-0.127
	c0-1.313,0-2.627,0-3.941c0-5.879,0-11.758,0-17.637c0-5.512,0-11.024,0-16.537c0-0.238,0.102-2.577-0.085-2.577
	c-1.352,0-2.703,0-4.056,0c-0.361,0-1.141-0.25-1.141,0.213c0,10.489,0,20.979,0,31.469C305.734,81,305.734,84.046,305.734,87.092z
	 M329.445,87.422c4.458,0,10.364-1.182,12.134-5.926c0.804-2.154,0.68-5.045-0.736-6.926c-1.583-2.103-4.116-2.855-6.563-3.411
	c-2.518-0.571-5.129-0.834-7.601-1.597c-1.065-0.329-2.29-0.93-2.814-1.973c-0.534-1.062-0.369-2.439,0.36-3.366
	c1.556-1.975,4.632-2.122,6.921-2.039c2.721,0.098,5.408,0.813,7.706,2.298c0.584-1.083,1.169-2.166,1.753-3.249
	c0.203-0.377,0.684-0.827,0.265-1.082c-1.186-0.723-2.502-1.217-3.835-1.59c-4.936-1.378-11.375-1.623-15.649,1.679
	c-4.005,3.094-4.175,9.473,0.17,12.329c2.179,1.434,5.034,1.84,7.558,2.248c2.164,0.35,5.266,0.521,6.91,2.165
	c0.972,0.972,0.95,2.684,0.215,3.791c-0.791,1.191-2.3,1.659-3.639,1.882c-4.337,0.719-9.399-0.249-13.001-2.825
	c-0.367,0.697-0.733,1.394-1.1,2.09c-0.224,0.425-1.329,1.924-0.899,2.246C320.857,86.609,325.465,87.422,329.445,87.422z
	 M359.26,57.66c-4.031,0-8.27,0.948-11.563,3.368c-0.521,0.384-0.517,0.314-0.243,0.808c0.254,0.457,0.508,0.914,0.762,1.371
	c0.399,0.719,0.798,1.437,1.197,2.155c2.147-1.805,5.005-2.802,7.773-3.066c2.396-0.229,5.191-0.029,7.116,1.585
	c1.777,1.491,2.164,3.707,2.164,5.909c0,0.51,0.096,0.522-0.37,0.522c-0.6,0-1.198,0-1.798,0c-2.963,0-6.01-0.178-8.961,0.138
	c-2.158,0.23-4.44,0.78-6.145,2.201c-1.95,1.625-2.879,3.979-2.801,6.494c0.137,4.415,3.712,7.299,7.831,8.032
	c4.32,0.77,9.935,0.049,12.518-3.937c0,1.217,0,2.434,0,3.651c0,0.334,0.265,0.199,0.572,0.199c0.775,0,1.55,0,2.325,0
	c0.357,0,2.109,0.244,2.109-0.184c0-0.843,0-1.687,0-2.53c0-4.963,0.037-9.927,0-14.89c0-3.219-0.771-6.598-3.219-8.857
	C366.041,58.333,362.547,57.66,359.26,57.66z M358.05,83.351c-2.223,0-4.931-0.569-6.01-2.764c-0.795-1.615-0.533-3.855,0.866-5.058
	c2.242-1.926,5.937-1.42,8.706-1.42c1.43,0,2.858,0,4.287,0c0.092,0,0.567-0.06,0.567,0.049c0,0.629,0,1.259,0,1.888
	c0,0.649,0,1.299,0,1.948c0,0.839-0.862,1.886-1.388,2.491C363.325,82.507,360.666,83.351,358.05,83.351z M396.283,81.591
	c-1.851,1.493-5.146,2.049-7.121,0.47c-1.292-1.033-1.57-2.686-1.57-4.247c0-2.513,0-5.025,0-7.538c0-2.56,0-5.119,0-7.679
	c0-0.589,0.688-0.315,1.196-0.315c1.545,0,3.09,0,4.636,0c0.201,0,2.529,0.053,2.529-0.046c0-1.307,0-2.614,0-3.921
	c0-0.308,0.087-0.379-0.213-0.379c-0.537,0-1.073,0-1.61,0c-1.571,0-3.144,0-4.715,0c-0.462,0-1.823,0.299-1.823-0.274
	c0-1.424,0-2.849,0-4.272c0-0.547,0-1.094,0-1.641c0-0.325-0.248-0.193-0.549-0.193c-1.435,0-2.869,0-4.304,0
	c-0.29,0-0.429-0.104-0.429,0.193c0,0.608,0,1.217,0,1.826c0,1.39,0,2.779,0,4.169c0,0.431-2.262,0.193-2.671,0.193
	c-0.649,0-1.299,0-1.949,0c-0.438,0-0.331,0.061-0.331,0.504c0,1.276,0,2.554,0,3.83c0,0.023,3.176,0.012,3.431,0.012
	c0.607,0,1.521-0.346,1.521,0.373c0,1.012,0,2.023,0,3.035c0,2.952,0,5.903,0,8.855c0,2.141-0.186,4.449,0.29,6.548
	c1.125,4.967,6.043,6.896,10.739,6.198c1.244-0.185,2.49-0.55,3.581-1.188c0.143-0.083,1.063-0.603,0.994-0.76
	c-0.08-0.184-0.159-0.366-0.239-0.55C397.211,83.726,396.747,82.658,396.283,81.591z M406.954,52.324
	c1.971,0,3.576-1.526,3.576-3.521c0-1.977-1.671-3.356-3.576-3.356c-1.932,0-3.575,1.494-3.575,3.466
	C403.378,50.888,405.035,52.324,406.954,52.324z M404.313,87.092c1.203,0,2.407,0,3.61,0c0.324,0,1.671,0.243,1.671-0.177
	c0-1.729,0-3.46,0-5.189c0-6.194,0-12.388,0-18.582c0-1.688,0-3.376,0-5.064c0-0.405-5.281-0.006-5.281-0.142
	c0,4.294,0,8.588,0,12.882C404.313,76.244,404.313,81.668,404.313,87.092z M430.279,57.66c-4.031,0-8.27,0.948-11.563,3.368
	c-0.521,0.384-0.517,0.314-0.243,0.808c0.254,0.457,0.508,0.914,0.762,1.371c0.399,0.719,0.798,1.437,1.197,2.155
	c2.147-1.805,5.005-2.802,7.773-3.066c2.396-0.229,5.191-0.029,7.116,1.585c1.777,1.491,2.164,3.707,2.164,5.909
	c0,0.51,0.096,0.522-0.37,0.522c-0.6,0-1.198,0-1.798,0c-2.963,0-6.01-0.178-8.961,0.138c-2.158,0.23-4.44,0.78-6.145,2.201
	c-1.95,1.625-2.879,3.979-2.801,6.494c0.137,4.415,3.712,7.299,7.831,8.032c4.32,0.77,9.935,0.049,12.518-3.937
	c0,1.217,0,2.434,0,3.651c0,0.334,0.265,0.199,0.572,0.199c0.775,0,1.55,0,2.325,0c0.357,0,2.109,0.244,2.109-0.184
	c0-0.843,0-1.687,0-2.53c0-4.963,0.037-9.927,0-14.89c0-3.219-0.771-6.598-3.219-8.857C437.059,58.333,433.566,57.66,430.279,57.66z
	 M429.069,83.351c-2.223,0-4.931-0.569-6.011-2.764c-0.794-1.615-0.532-3.855,0.867-5.058c2.242-1.926,5.936-1.42,8.706-1.42
	c1.43,0,2.858,0,4.287,0c0.092,0,0.567-0.06,0.567,0.049c0,0.629,0,1.259,0,1.888c0,0.649,0,1.299,0,1.948
	c0,0.839-0.863,1.886-1.388,2.491C434.343,82.507,431.683,83.351,429.069,83.351z M468.126,57.66c-3.962,0-8.132,1.319-10.507,4.676
	c0-1.213,0-2.426,0-3.639c0-0.157,0.107-0.762-0.09-0.762c-0.615,0-1.231,0-1.847,0c-0.229,0-3.125-0.018-3.125,0.017
	c0,0.431,0,0.86,0,1.291c0,5.644,0,11.287,0,16.93c0,2.745,0,5.49,0,8.236c0,0.746,0,1.492,0,2.238c0,0.583,0.048,0.444,0.682,0.444
	c1.427,0,2.853,0,4.278,0c0.569,0,0.321-0.632,0.321-1.131c0-2.943,0-5.886,0-8.829c0-2.31-0.18-4.73,0.122-7.028
	c0.305-2.32,1.298-4.506,3.192-5.945c2.033-1.546,4.758-1.976,7.25-1.695c2.31,0.259,4.421,1.397,5.522,3.503
	c0.828,1.582,1.021,3.393,1.021,5.151c0,2.431,0,4.861,0,7.292c0,2.697,0,5.395,0,8.093c0,0.804,0.136,0.59,0.979,0.59
	c1.385,0,2.77,0,4.155,0c0.314,0,0.147-0.985,0.147-1.243c0-1.277,0-2.556,0-3.833c0-3.101,0-6.201,0-9.303
	c0-2.743,0.064-5.508-0.912-8.126C477.56,59.875,472.948,57.66,468.126,57.66z"/>
</svg>
